<svg class="svg-icon" style="width: 1em; height: 1em;vertical-align: middle;fill: currentColor;overflow: hidden;" viewBox="0 0 1024 1024" version="1.1" xmlns="http://www.w3.org/2000/svg"><path d="M526.9 883c-54.7 0-99-44.3-99-99V239h198v545c0 54.7-44.3 99-99 99z" fill="#25B195" /><path d="M474.1 620.5c0 15.3-12.4 27.7-27.7 27.7-15.3 0-27.7-12.4-27.7-27.7 0-15.3 12.4-27.7 27.7-27.7 15.3 0.1 27.7 12.5 27.7 27.7z m0 0M559.1 669.5c0 15.3-12.4 27.7-27.7 27.7-15.3 0-27.7-12.4-27.7-27.7 0-15.3 12.4-27.7 27.7-27.7 15.3 0.1 27.7 12.5 27.7 27.7z m0 0M487.9 736.1c0 12.6-10.3 22.9-22.9 22.9-12.6 0-22.9-10.3-22.9-22.9 0-12.6 10.3-22.9 22.9-22.9 12.7 0 22.9 10.2 22.9 22.9z m0 0M597.9 768.1c0 19.3-15.7 34.9-34.9 34.9-19.3 0-34.9-15.7-34.9-34.9 0-19.3 15.7-34.9 34.9-34.9 19.3 0 34.9 15.6 34.9 34.9z m0 0M605.8 527.9c0 30.6-24.8 55.3-55.3 55.3-30.6 0-55.3-24.8-55.3-55.3 0-30.6 24.8-55.3 55.3-55.3 30.5-0.1 55.3 24.7 55.3 55.3z m0 0" fill="#595857" /><path d="M669.2 167.1H349.3c-3.4 0-6.1 2.7-6.1 6.1v15.5c0 3.4 2.7 6.1 6.1 6.1h12.3c5.1 0 9.3 4.2 9.3 9.3v544.1c0 76.4 62 138.4 138.4 138.3 76.6 0 138.3-63.1 138.3-139.7V204.1c0-5.1 4.2-9.3 9.3-9.3h12.3c3.4 0 6.1-2.7 6.1-6.1v-15.5c0-3.3-2.7-6.1-6.1-6.1zM620 748.2c0 60.4-48.5 109.6-108.6 110.7-62.1 1.1-112.7-49.8-112.7-112V204.1c0-5.1 4.2-9.3 9.3-9.3h202.8c5.1 0 9.3 4.2 9.3 9.3v544.1z m0 0" fill="#595857" /></svg>